<?xml version="1.0" standalone="no"?>
<!DOCTYPE svg PUBLIC "-//W3C//DTD SVG 20010904//EN"
 "http://www.w3.org/TR/2001/REC-SVG-20010904/DTD/svg10.dtd">
<svg version="1.0" xmlns="http://www.w3.org/2000/svg"
 width="260.000000pt" height="260.000000pt" viewBox="0 0 260.000000 260.000000"
 preserveAspectRatio="xMidYMid meet">
<metadata>
Created by potrace 1.14, written by Peter Selinger 2001-2017
</metadata>
<g transform="translate(0.000000,260.000000) scale(0.100000,-0.100000)"
fill="#000000" stroke="none">
<path d="M1817 1996 c-98 -27 -140 -78 -145 -176 -6 -97 20 -174 138 -420 127
-264 147 -327 121 -369 -22 -35 -84 39 -160 194 -81 163 -135 331 -175 544
-14 73 -31 140 -37 147 -21 26 -84 36 -259 41 -499 16 -749 -105 -827 -398
-23 -87 -22 -247 1 -316 37 -109 96 -148 226 -148 75 0 91 3 132 28 89 52 133
141 147 299 10 103 6 130 -18 126 -13 -3 -16 -18 -18 -78 -2 -108 -11 -155
-34 -176 -35 -32 -44 -6 -42 129 3 263 85 487 179 487 16 0 29 -10 41 -32 27
-49 26 -402 -1 -503 -61 -234 -199 -370 -396 -394 -81 -9 -172 -2 -207 17 -30
17 -37 47 -23 99 14 47 6 69 -20 53 -12 -8 -15 -36 -15 -152 1 -124 4 -151 23
-199 57 -143 182 -197 435 -187 144 6 198 23 267 85 58 52 87 117 102 227 13
96 0 221 -52 492 -40 207 -48 315 -26 333 21 17 44 8 50 -21 3 -13 22 -113 42
-223 64 -350 142 -632 214 -775 40 -80 56 -85 265 -85 114 0 177 4 191 12 20
11 21 23 28 201 18 522 95 1002 161 1002 21 0 26 -31 15 -90 -14 -72 -13 -90
5 -90 24 0 38 42 38 116 0 91 -28 148 -92 183 -54 30 -198 39 -274 17z"/>
</g>
</svg>
