<svg width="814" height="794" viewBox="0 0 814 794" fill="none" xmlns="http://www.w3.org/2000/svg"><path d="M135.573 74.884l-.005.004C68.612 132.451 35.272 227.49 16.19 326.552l-.001.006C-3.419 426.123-8.113 528.501 31.982 612.05c40.629 84.076 126.692 149.02 219.114 170.839 92.387 21.81 191.233.02 285.031-34.383l.009-.003c94.363-33.895 183.589-80.192 231.571-153.84l.003-.004c47.97-73.111 54.896-174.385 32.683-264.903v-.002c-22.2-90.984-74-172.089-144.819-229.271C584.757 43.3 494.885 9.489 399.161 2.726h-.001C303.913-4.04 202.527 16.804 135.573 74.884z" stroke="#00E676" stroke-width="3"/></svg>